# xmcd
#
# Track frame offsets:
#	150
#	16888
#	30039
#	45255
#	60386
#	77733
#	96307
#	112275
#	124168
#	141746
#	157551
#	171785
#	189536
#	205751
#
# Disc length: 2983 seconds
#
# Revision: 1
# Processed by: cddbd v1.5.2PL0 Copyright (c) Steve Scherf et al.
# Submitted via: audiograbber 1.83.01
#
DISCID=ae0ba50e
DTITLE=Truck Stop - Made In Germany
DYEAR=2017
DGENRE=Country
TTITLE0=Made in Germany
TTITLE1=Ich guck das Spiel, Schatz
TTITLE2=Ein Hund ohne richtigen Namen
TTITLE3=Mama macht Karriere	, Papa macht das Haus
TTITLE4=Wäre, würde, hätte
TTITLE5=Wenn du jemand suchst
TTITLE6=Wenn Männerherzen brechen
TTITLE7=Hey Nachbarn alles klar?
TTITLE8=Ich drück 2 Augen zu weil du es bist
TTITLE9=Ich hab keinen Plan
TTITLE10=Ich bin nicht der Typ den du eigentlich suchst
TTITLE11=Ohne Frauen wie dich
TTITLE12=Raus aus meinem Kopf und rein in mein Leben
TTITLE13=Du bist mein letzer Halt auf dem Weg zu ihr	
EXTD=
EXTT0=
EXTT1=
EXTT2=
EXTT3=
EXTT4=
EXTT5=
EXTT6=
EXTT7=
EXTT8=
EXTT9=
EXTT10=
EXTT11=
EXTT12=
EXTT13=
PLAYORDER=
